<?xml version="1.0" encoding="utf-8"?>
<!-- Generator: Adobe Illustrator 25.4.1, SVG Export Plug-In . SVG Version: 6.00 Build 0)  -->
<svg version="1.1" id="Layer_1" xmlns="http://www.w3.org/2000/svg" xmlns:xlink="http://www.w3.org/1999/xlink" x="0px" y="0px"
	 viewBox="0 0 57.36 57.36" style="enable-background:new 0 0 57.36 57.36;" xml:space="preserve">
<style type="text/css">
	.st0{fill:#2BB673;}
</style>
<g id="XMLID_4_">
	<g id="XMLID_1_">
		<g id="XMLID_9_">
			<path id="XMLID_12_" class="st0" d="M4.74,13.05c0,0,0.19,0.06,0.55,0.19C4.97,13.07,4.74,13.05,4.74,13.05z"/>
			<path class="st0" d="M33.3,41.77c-0.1,0.61-0.21,1.12-0.3,1.5c-0.01,0.06-0.03,0.12-0.04,0.17c0,0.02-0.01,0.03-0.01,0.05
				c0-0.02,0-0.05,0-0.07c-0.01-1.14-0.35-2.43-0.89-3.73c-1.86-4.53-6-9.31-6.16-9.5c0,0,0,0-0.01-0.01
				C16.38,18.06,7.53,14.1,5.29,13.25c-0.31-0.18-0.55-0.19-0.55-0.19s10.1-1.88,20.58,6.17c5.35,4.18,7.45,9.49,8.11,14.12
				C33.91,36.76,33.63,39.81,33.3,41.77z"/>
			<path id="XMLID_15_" class="st0" d="M6.88,17.07c0.19,3.74,1.49,28.94,22.88,27.36c0.63-1.62,0.8-8.38-3.87-14.25
				C16.38,18.06,7.53,14.1,5.29,13.25C5.88,13.59,6.75,14.52,6.88,17.07z"/>
		</g>
		<g id="XMLID_11_">
			<path class="st0" d="M52.62,26.94c0,0-11.8,1.57-16.43,9.29c0,0,0,0,0,0c-0.04,0.04-2.05,2.44-2.89,5.55
				c-0.13,0.48-0.23,0.98-0.3,1.5c-0.01,0.07-0.02,0.14-0.02,0.21c0,0-0.01-0.01-0.02-0.04c0-0.01-0.01-0.02-0.01-0.03
				c-0.01-1.14-0.35-2.43-0.89-3.73c-0.14-1.81,0.09-4.07,1.36-6.34c0.67-1.2,1.64-2.4,2.99-3.54
				C43.54,23.81,52.62,26.94,52.62,26.94z"/>
			<path id="XMLID_17_" class="st0" d="M35.07,43.84c9.89,1.17,13.17-6.85,13.82-10.61c0.69-4.01,3.74-6.29,3.74-6.29
				s-11.8,1.57-16.43,9.29C34,40.01,34.83,42.99,35.07,43.84z"/>
		</g>
		<circle class="st0" cx="35.56" cy="24.29" r="4.58"/>
	</g>
</g>
<text transform="matrix(1 0 0 1 -262.7014 598.6708)" style="display:none; font-family:'Ubuntu-Bold'; font-size:327.7051px;">MILA</text>
<text transform="matrix(1 0 0 1 -272.7812 721.4498)" style="display:none; font-family:'Ubuntu-Regular'; font-size:100px;">Natureza Moderna</text>
</svg>
